# xmcd
#
# Track frame offsets: 
#        150
#        15551
#        30658
#        45451
#        56935
#        73558
#        83717
#        99537
#        113762
#        122505
#
# Disc length: 1794 seconds
#
# Revision: 0
# Processed by: cddbd v1.5.2PL0 Copyright (c) Steve Scherf et al.
# Submitted via: ExactAudioCopyFreeDBPlugin 1.0
#
DISCID=7907000a
DTITLE=Spare Snare - Unicorn
DYEAR=2017
DGENRE=Indie Rock
TTITLE0=Hope You Never Go
TTITLE1=Work I Am
TTITLE2=All I'm Hating
TTITLE3=Eyelash
TTITLE4=You're Not Home
TTITLE5=Soft Rains
TTITLE6=Not As Smart As You
TTITLE7=Loving Life
TTITLE8=The Disease
TTITLE9=The Nuclear Night
EXTD=
EXTT0=
EXTT1=
EXTT2=
EXTT3=
EXTT4=
EXTT5=
EXTT6=
EXTT7=
EXTT8=
EXTT9=
PLAYORDER=
